# xmcd
#
# Track frame offsets:
#	150
#	17355
#	38580
#	56365
#	71055
#	86822
#	103412
#	114157
#	134137
#	152475
#	166757
#	182177
#
# Disc length: 2689 seconds
#
# Revision: 3
# Processed by: cddbd v1.4PL0 Copyright (c) Steve Scherf et al.
# Submitted via: EasyCDDAExtractor 5.0.7
#
DISCID=980a7f0c
DTITLE=Alison Krauss - Now That I've Found You - A Collection
DYEAR=1995
DGENRE=Country
TTITLE0=Baby, Now That I've Found You
TTITLE1=Oh, Atlanta
TTITLE2=Broadway
TTITLE3=Every Time You Say Goodbye
TTITLE4=Tonight I'll Be Lonely Too
TTITLE5=Teardrops Will Kiss the Morning Dew
TTITLE6=Sleep On
TTITLE7=When God Dips His Pen of Love in My Heart
TTITLE8=I Will
TTITLE9=I Don't Believe You've Met My Baby
TTITLE10=In the Palm of Your Hand
TTITLE11=When You Say Nothing at All
EXTD=Rounder Records RCD 325
EXTT0=Recorded 1994\nPreviously unreleased
EXTT1=Recorded 1994\nPreviously unreleased
EXTT2=Recorded 1994\nPreviously unreleased
EXTT3=Recorded 1992\nAlison Krauss and the Union Station
EXTT4=Recorded 1990
EXTT5=Recorded 1989\nAlison Krauss and the Union Station
EXTT6=Recorded 1987
EXTT7=Recorded 1993\nThe Cox Family
EXTT8=Recorded 1992\nfrom "Within Reach" by Tony Furtado
EXTT9=Recorded 1992\nfrom "Slide Rule" by Jerry Douglas
EXTT10=Recorded 1994\nAlison Krauss and the Cox Family
EXTT11=Recorded 1994\nAlison Krauss and the Union Station
PLAYORDER=
